<?xml version="1.0" encoding="UTF-8" standalone="no"?>
<!-- Created with Inkscape (http://www.inkscape.org/) -->

<svg
   width="20in"
   height="12in"
   viewBox="0 0 508.00001 304.8"
   version="1.1"
   id="svg1"
   inkscape:version="1.2.2 (b0a84865, 2022-12-01)"
   sodipodi:docname="house.svg"
   xmlns:inkscape="http://www.inkscape.org/namespaces/inkscape"
   xmlns:sodipodi="http://sodipodi.sourceforge.net/DTD/sodipodi-0.dtd"
   xmlns="http://www.w3.org/2000/svg"
   xmlns:svg="http://www.w3.org/2000/svg">
  <sodipodi:namedview
     id="namedview1"
     pagecolor="#ffffff"
     bordercolor="#000000"
     borderopacity="0.25"
     inkscape:showpageshadow="2"
     inkscape:pageopacity="0.0"
     inkscape:pagecheckerboard="0"
     inkscape:deskcolor="#d1d1d1"
     inkscape:document-units="in"
     showgrid="true"
     inkscape:zoom="0.78239463"
     inkscape:cx="1056.3723"
     inkscape:cy="761.76392"
     inkscape:window-width="1338"
     inkscape:window-height="758"
     inkscape:window-x="53"
     inkscape:window-y="25"
     inkscape:window-maximized="0"
     inkscape:current-layer="layer1">
    <inkscape:grid
       id="grid1"
       units="in"
       originx="0"
       originy="0"
       spacingx="3.175"
       spacingy="3.175"
       empcolor="#e5bf00"
       empopacity="0.14901961"
       color="#e5bf00"
       opacity="0.10196078"
       empspacing="8"
       dotted="false"
       gridanglex="30"
       gridanglez="30"
       visible="true" />
  </sodipodi:namedview>
  <defs
     id="defs1" />
  <g
     inkscape:groupmode="layer"
     id="layer5"
     inkscape:label="ENGRAVE"
     inkscape:highlight-color="#3af335" />
  <g
     inkscape:groupmode="layer"
     id="layer6"
     inkscape:label="SCORE"
     inkscape:highlight-color="#3537f3" />
  <g
     inkscape:label="CUT"
     inkscape:groupmode="layer"
     id="layer1"
     inkscape:highlight-color="#000000">
    <g
       id="p-1"
       style="fill:none;stroke-linecap:round;stroke-linejoin:round"
       transform="matrix(0.54296875,0,0,0.51119768,250.85729,144.10201)">
      <path
         d="m 30.743,202.351 h 6.21 c 0.055,0 0.1,-0.045 0.1,-0.1 v -2.9 c 0,-0.1 -0.1,0 0,0 h 5.8 c 0.1,0 0,-0.1 0,0 v 2.9 c 0,0.055 0.045,0.1 0.1,0.1 h 6 c 0.055,0 0.1,-0.045 0.1,-0.1 v -2.9 c 0,-0.1 -0.1,0 0,0 h 5.8 c 0.1,0 0,-0.1 0,0 v 2.9 c 0,0.055 0.045,0.1 0.1,0.1 h 6 c 0.055,0 0.1,-0.045 0.1,-0.1 v -2.9 c 0,-0.1 -0.1,0 0,0 h 5.8 c 0.1,0 0,-0.1 0,0 v 2.9 c 0,0.055 0.045,0.1 0.1,0.1 h 6 c 0.055,0 0.1,-0.045 0.1,-0.1 v -2.9 c 0,-0.1 -0.1,0 0,0 h 5.8 c 0.1,0 0,-0.1 0,0 v 2.9 c 0,0.055 0.045,0.1 0.1,0.1 h 6.209 2.18 c 0.043,0 0.082,-0.028 0.095,-0.069 l 0.674,-2.073 1.919,-5.906 c 0.017,-0.052 -0.012,-0.109 -0.065,-0.126 l -2.758,-0.896 c -0.095,-0.031 -0.031,0.095 0,0 L 89,187.765 c 0.031,-0.095 -0.095,-0.031 0,0 l 2.758,0.896 c 0.052,0.017 0.109,-0.012 0.126,-0.064 l 1.854,-5.707 c 0.017,-0.052 -0.012,-0.109 -0.064,-0.126 l -2.758,-0.896 c -0.096,-0.031 -0.031,0.095 0,0 l 1.792,-5.516 c 0.031,-0.095 -0.095,-0.031 0,0 l 2.758,0.896 c 0.052,0.017 0.109,-0.011 0.126,-0.064 l 1.854,-5.706 c 0.017,-0.053 -0.012,-0.109 -0.064,-0.126 l -2.758,-0.896 c -0.095,-0.031 -0.031,0.095 0,0 l 1.792,-5.517 c 0.031,-0.095 -0.095,-0.03 0,0 l 2.758,0.897 c 0.053,0.017 0.109,-0.012 0.126,-0.065 l 1.854,-5.706 c 0.017,-0.052 -0.011,-0.109 -0.064,-0.126 l -2.758,-0.896 c -0.095,-0.031 -0.031,0.095 0,0 l 1.792,-5.516 c 0.031,-0.095 -0.095,-0.031 0,0 l 2.758,0.896 c 0.053,0.017 0.109,-0.012 0.126,-0.064 l 1.919,-5.906 0.674,-2.073 c 0.013,-0.041 -0.002,-0.086 -0.037,-0.112 l -1.763,-1.281 -5.024,-3.65 c -0.044,-0.032 -0.107,-0.022 -0.139,0.022 l -1.705,2.346 c -0.059,0.081 0.081,0.059 0,0 l -4.692,-3.409 c -0.081,-0.058 -0.059,0.081 0,0 l 1.704,-2.346 c 0.033,-0.045 0.023,-0.107 -0.022,-0.14 l -4.854,-3.526 c -0.045,-0.033 -0.107,-0.023 -0.14,0.022 l -1.704,2.346 c -0.059,0.081 0.081,0.059 0,0 l -4.692,-3.409 c -0.081,-0.059 -0.059,0.081 0,0 l 1.704,-2.346 c 0.033,-0.045 0.023,-0.108 -0.022,-0.14 l -4.854,-3.527 c -0.045,-0.032 -0.107,-0.022 -0.14,0.022 l -1.704,2.347 c -0.059,0.08 0.081,0.058 0,0 l -4.693,-3.41 c -0.08,-0.058 -0.058,0.081 0,0 l 1.705,-2.346 c 0.032,-0.044 0.023,-0.107 -0.022,-0.139 l -4.854,-3.527 c -0.045,-0.033 -0.107,-0.023 -0.14,0.022 l -1.704,2.346 c -0.059,0.081 0.08,0.059 0,0 l -4.693,-3.409 c -0.081,-0.059 -0.059,0.081 0,0 l 1.705,-2.346 c 0.032,-0.045 0.022,-0.107 -0.022,-0.14 L 59.775,113 58.012,111.719 c -0.035,-0.025 -0.083,-0.025 -0.118,0 l -1.763,1.281 -5.024,3.65 c -0.045,0.033 -0.055,0.095 -0.022,0.14 l 1.704,2.346 c 0.059,0.081 0.081,-0.059 0,0 l -4.692,3.409 c -0.081,0.059 0.059,0.081 0,0 l -1.704,-2.346 c -0.033,-0.045 -0.095,-0.055 -0.14,-0.022 l -4.854,3.527 c -0.045,0.032 -0.055,0.095 -0.022,0.139 l 1.704,2.346 c 0.059,0.081 0.081,-0.058 0,0 l -4.692,3.41 c -0.081,0.058 0.059,0.08 0,0 l -1.705,-2.347 c -0.032,-0.044 -0.095,-0.054 -0.139,-0.022 l -4.854,3.527 c -0.045,0.032 -0.055,0.095 -0.023,0.14 l 1.705,2.346 c 0.059,0.081 0.081,-0.059 0,0 l -4.692,3.409 c -0.081,0.059 0.059,0.081 0,0 l -1.705,-2.346 c -0.032,-0.045 -0.095,-0.055 -0.14,-0.022 l -4.854,3.526 c -0.044,0.033 -0.054,0.095 -0.022,0.14 l 1.705,2.346 c 0.059,0.081 0.081,-0.058 0,0 l -4.692,3.409 c -0.081,0.059 0.058,0.081 0,0 l -1.705,-2.346 c -0.033,-0.044 -0.095,-0.054 -0.14,-0.022 l -5.023,3.65 -1.764,1.281 c -0.035,0.026 -0.049,0.071 -0.036,0.112 l 0.673,2.073 1.919,5.906 c 0.017,0.052 0.074,0.081 0.126,0.064 l 2.758,-0.896 c 0.095,-0.031 -0.031,-0.095 0,0 l 1.793,5.516 c 0.031,0.095 0.095,-0.031 0,0 l -2.758,0.896 c -0.053,0.017 -0.082,0.074 -0.065,0.126 l 1.855,5.706 c 0.017,0.053 0.073,0.082 0.126,0.065 l 2.758,-0.897 c 0.095,-0.03 -0.031,-0.095 0,0 l 1.792,5.517 c 0.031,0.095 0.095,-0.031 0,0 l -2.758,0.896 c -0.053,0.017 -0.081,0.073 -0.064,0.126 l 1.854,5.706 c 0.017,0.053 0.073,0.081 0.126,0.064 l 2.758,-0.896 c 0.095,-0.031 -0.031,-0.095 0,0 l 1.792,5.516 c 0.031,0.095 0.095,-0.031 0,0 l -2.758,0.896 c -0.052,0.017 -0.081,0.074 -0.064,0.126 l 1.854,5.707 c 0.017,0.052 0.073,0.081 0.126,0.064 l 2.758,-0.896 c 0.095,-0.031 -0.031,-0.095 0,0 l 1.792,5.516 c 0.031,0.095 0.095,-0.031 0,0 l -2.758,0.896 c -0.052,0.017 -0.081,0.074 -0.064,0.126 l 1.919,5.906 0.673,2.073 c 0.014,0.041 0.052,0.069 0.096,0.069 z"
         stroke="#000000"
         stroke-width="0.2"
         id="path8191" />
    </g>
    <g
       id="p-2"
       style="fill:none;stroke-linecap:round;stroke-linejoin:round"
       transform="matrix(0.54296875,0,0,0.51119768,250.85729,144.10201)">
      <path
         d="m 12.58,107.2 h 6.109 c 0.1,0 0,-0.1 0,0 v 2.9 c 0,0.055 0.045,0.1 0.1,0.1 h 6 c 0.055,0 0.1,-0.045 0.1,-0.1 v -2.9 c 0,-0.1 -0.1,0 0,0 h 5.8 c 0.1,0 0,-0.1 0,0 v 2.9 c 0,0.055 0.045,0.1 0.1,0.1 h 6 c 0.055,0 0.1,-0.045 0.1,-0.1 v -2.9 c 0,-0.1 -0.1,0 0,0 h 5.8 c 0.1,0 0,-0.1 0,0 v 2.9 c 0,0.055 0.045,0.1 0.1,0.1 h 6 c 0.055,0 0.1,-0.045 0.1,-0.1 v -2.9 c 0,-0.1 -0.1,0 0,0 h 5.8 c 0.1,0 0,-0.1 0,0 v 2.9 c 0,0.055 0.045,0.1 0.1,0.1 h 6 c 0.055,0 0.1,-0.045 0.1,-0.1 v -2.9 c 0,-0.1 -0.1,0 0,0 h 6.11 c 0.055,0 0.1,-0.045 0.1,-0.1 v -3.4 c 0,-0.1 -0.1,0 0,0 h 2.753 c 0.055,0 0.1,-0.045 0.1,-0.1 v -6 c 0,-0.055 -0.045,-0.1 -0.1,-0.1 h -2.753 c -0.1,0 0,0.1 0,0 v -5.8 c 0,-0.1 -0.1,0 0,0 h 2.753 c 0.055,0 0.1,-0.045 0.1,-0.1 v -6 c 0,-0.055 -0.045,-0.1 -0.1,-0.1 h -2.753 c -0.1,0 0,0.1 0,0 v -5.8 c 0,-0.1 -0.1,0 0,0 h 2.753 c 0.055,0 0.1,-0.045 0.1,-0.1 v -6 c 0,-0.055 -0.045,-0.1 -0.1,-0.1 h -2.753 c -0.1,0 0,0.1 0,0 v -5.8 c 0,-0.1 -0.1,0 0,0 h 2.753 c 0.055,0 0.1,-0.045 0.1,-0.1 v -6 c 0,-0.055 -0.045,-0.1 -0.1,-0.1 h -2.753 c -0.1,0 0,0.1 0,0 v -5.8 c 0,-0.1 -0.1,0 0,0 h 2.753 c 0.055,0 0.1,-0.045 0.1,-0.1 v -6 c 0,-0.055 -0.045,-0.1 -0.1,-0.1 h -2.753 c -0.1,0 0,0.1 0,0 v -5.8 c 0,-0.1 -0.1,0 0,0 h 2.753 c 0.055,0 0.1,-0.045 0.1,-0.1 v -6 c 0,-0.055 -0.045,-0.1 -0.1,-0.1 h -2.753 c -0.1,0 0,0.1 0,0 v -5.8 c 0,-0.1 -0.1,0 0,0 h 2.753 c 0.055,0 0.1,-0.045 0.1,-0.1 v -6 c 0,-0.055 -0.045,-0.1 -0.1,-0.1 h -2.753 c -0.1,0 0,0.1 0,0 v -5.8 c 0,-0.1 -0.1,0 0,0 h 2.753 c 0.055,0 0.1,-0.045 0.1,-0.1 v -6 c 0,-0.055 -0.045,-0.1 -0.1,-0.1 h -2.753 c -0.1,0 0,0.1 0,0 v -3.4 c 0,-0.055 -0.045,-0.1 -0.1,-0.1 H 12.58 c -0.056,0 -0.1,0.045 -0.1,0.1 0,-0.055 0.044,-0.1 0.1,-0.1 H 10.4 c -0.055,0 -0.1,0.045 -0.1,0.1 v 3.5 c 0,0.055 0.045,0.1 0.1,0.1 h 2.753 c 0.1,0 0,-0.1 0,0 v 5.8 c 0,0.1 0.1,0 0,0 H 10.4 c -0.055,0 -0.1,0.045 -0.1,0.1 v 6 c 0,0.055 0.045,0.1 0.1,0.1 h 2.753 c 0.1,0 0,-0.1 0,0 v 5.8 c 0,0.1 0.1,0 0,0 H 10.4 c -0.055,0 -0.1,0.045 -0.1,0.1 v 6 c 0,0.055 0.045,0.1 0.1,0.1 h 2.753 c 0.1,0 0,-0.1 0,0 v 5.8 c 0,0.1 0.1,0 0,0 H 10.4 c -0.055,0 -0.1,0.045 -0.1,0.1 v 6 c 0,0.055 0.045,0.1 0.1,0.1 h 2.753 c 0.1,0 0,-0.1 0,0 v 5.8 c 0,0.1 0.1,0 0,0 H 10.4 c -0.055,0 -0.1,0.045 -0.1,0.1 v 6 c 0,0.055 0.045,0.1 0.1,0.1 h 2.753 c 0.1,0 0,-0.1 0,0 v 5.8 c 0,0.1 0.1,0 0,0 H 10.4 c -0.055,0 -0.1,0.045 -0.1,0.1 v 6 c 0,0.055 0.045,0.1 0.1,0.1 h 2.753 c 0.1,0 0,-0.1 0,0 v 5.8 c 0,0.1 0.1,0 0,0 H 10.4 c -0.055,0 -0.1,0.045 -0.1,0.1 v 6 c 0,0.055 0.045,0.1 0.1,0.1 h 2.753 c 0.1,0 0,-0.1 0,0 v 5.8 c 0,0.1 0.1,0 0,0 H 10.4 c -0.055,0 -0.1,0.045 -0.1,0.1 v 6 c 0,0.055 0.045,0.1 0.1,0.1 h 2.753 c 0.1,0 0,-0.1 0,0 v 5.8 c 0,0.1 0.1,0 0,0 H 10.4 c -0.055,0 -0.1,0.045 -0.1,0.1 v 3.5 c 0,0.055 0.045,0.1 0.1,0.1 h 2.18 c -0.056,0 -0.1,-0.045 -0.1,-0.1 0,0.055 0.044,0.1 0.1,0.1 z"
         stroke="#000000"
         stroke-width="0.2"
         id="path8194" />
    </g>
    <g
       id="p-3"
       style="fill:none;stroke-linecap:round;stroke-linejoin:round"
       transform="matrix(0.54296875,0,0,0.51119768,250.85729,144.10201)">
      <path
         d="m 73.732,107.2 h 6.109 c 0.1,0 0,-0.1 0,0 v 2.9 c 0,0.055 0.045,0.1 0.1,0.1 h 6 c 0.056,0 0.1,-0.045 0.1,-0.1 v -2.9 c 0,-0.1 -0.1,0 0,0 h 5.8 c 0.1,0 0,-0.1 0,0 v 2.9 c 0,0.055 0.045,0.1 0.1,0.1 h 6 c 0.056,0 0.1,-0.045 0.1,-0.1 v -2.9 c 0,-0.1 -0.1,0 0,0 h 5.8 c 0.1,0 0,-0.1 0,0 v 2.9 c 0,0.055 0.045,0.1 0.1,0.1 h 6 c 0.056,0 0.1,-0.045 0.1,-0.1 v -2.9 c 0,-0.1 -0.1,0 0,0 h 5.8 c 0.1,0 0,-0.1 0,0 v 2.9 c 0,0.055 0.045,0.1 0.1,0.1 h 6 c 0.056,0 0.1,-0.045 0.1,-0.1 v -2.9 c 0,-0.1 -0.1,0 0,0 h 6.11 c 0.055,0 0.1,-0.045 0.1,-0.1 v -3.4 c 0,-0.1 -0.1,0 0,0 h 2.753 c 0.055,0 0.1,-0.045 0.1,-0.1 v -6 c 0,-0.055 -0.045,-0.1 -0.1,-0.1 h -2.753 c -0.1,0 0,0.1 0,0 v -5.8 c 0,-0.1 -0.1,0 0,0 h 2.753 c 0.055,0 0.1,-0.045 0.1,-0.1 v -6 c 0,-0.055 -0.045,-0.1 -0.1,-0.1 h -2.753 c -0.1,0 0,0.1 0,0 v -5.8 c 0,-0.1 -0.1,0 0,0 h 2.753 c 0.055,0 0.1,-0.045 0.1,-0.1 v -6 c 0,-0.055 -0.045,-0.1 -0.1,-0.1 h -2.753 c -0.1,0 0,0.1 0,0 v -5.8 c 0,-0.1 -0.1,0 0,0 h 2.753 c 0.055,0 0.1,-0.045 0.1,-0.1 v -6 c 0,-0.055 -0.045,-0.1 -0.1,-0.1 h -2.753 c -0.1,0 0,0.1 0,0 v -5.8 c 0,-0.1 -0.1,0 0,0 h 2.753 c 0.055,0 0.1,-0.045 0.1,-0.1 v -6 c 0,-0.055 -0.045,-0.1 -0.1,-0.1 h -2.753 c -0.1,0 0,0.1 0,0 v -5.8 c 0,-0.1 -0.1,0 0,0 h 2.753 c 0.055,0 0.1,-0.045 0.1,-0.1 v -6 c 0,-0.055 -0.045,-0.1 -0.1,-0.1 h -2.753 c -0.1,0 0,0.1 0,0 v -5.8 c 0,-0.1 -0.1,0 0,0 h 2.753 c 0.055,0 0.1,-0.045 0.1,-0.1 v -6 c 0,-0.055 -0.045,-0.1 -0.1,-0.1 h -2.753 c -0.1,0 0,0.1 0,0 v -5.8 c 0,-0.1 -0.1,0 0,0 h 2.753 c 0.055,0 0.1,-0.045 0.1,-0.1 v -6 c 0,-0.055 -0.045,-0.1 -0.1,-0.1 h -2.753 c -0.1,0 0,0.1 0,0 v -3.4 c 0,-0.055 -0.045,-0.1 -0.1,-0.1 H 73.732 c -0.056,0 -0.1,0.045 -0.1,0.1 0,-0.055 0.044,-0.1 0.1,-0.1 h -2.18 c -0.055,0 -0.1,0.045 -0.1,0.1 v 3.5 c 0,0.055 0.045,0.1 0.1,0.1 h 2.753 c 0.1,0 0,-0.1 0,0 v 5.8 c 0,0.1 0.1,0 0,0 h -2.753 c -0.055,0 -0.1,0.045 -0.1,0.1 v 6 c 0,0.055 0.045,0.1 0.1,0.1 h 2.753 c 0.1,0 0,-0.1 0,0 v 5.8 c 0,0.1 0.1,0 0,0 h -2.753 c -0.055,0 -0.1,0.045 -0.1,0.1 v 6 c 0,0.055 0.045,0.1 0.1,0.1 h 2.753 c 0.1,0 0,-0.1 0,0 v 5.8 c 0,0.1 0.1,0 0,0 h -2.753 c -0.055,0 -0.1,0.045 -0.1,0.1 v 6 c 0,0.055 0.045,0.1 0.1,0.1 h 2.753 c 0.1,0 0,-0.1 0,0 v 5.8 c 0,0.1 0.1,0 0,0 h -2.753 c -0.055,0 -0.1,0.045 -0.1,0.1 v 6 c 0,0.055 0.045,0.1 0.1,0.1 h 2.753 c 0.1,0 0,-0.1 0,0 v 5.8 c 0,0.1 0.1,0 0,0 h -2.753 c -0.055,0 -0.1,0.045 -0.1,0.1 v 6 c 0,0.055 0.045,0.1 0.1,0.1 h 2.753 c 0.1,0 0,-0.1 0,0 v 5.8 c 0,0.1 0.1,0 0,0 h -2.753 c -0.055,0 -0.1,0.045 -0.1,0.1 v 6 c 0,0.055 0.045,0.1 0.1,0.1 h 2.753 c 0.1,0 0,-0.1 0,0 v 5.8 c 0,0.1 0.1,0 0,0 h -2.753 c -0.055,0 -0.1,0.045 -0.1,0.1 v 6 c 0,0.055 0.045,0.1 0.1,0.1 h 2.753 c 0.1,0 0,-0.1 0,0 v 5.8 c 0,0.1 0.1,0 0,0 h -2.753 c -0.055,0 -0.1,0.045 -0.1,0.1 v 3.5 c 0,0.055 0.045,0.1 0.1,0.1 h 2.18 c -0.056,0 -0.1,-0.045 -0.1,-0.1 0,0.055 0.044,0.1 0.1,0.1 z"
         stroke="#000000"
         stroke-width="0.2"
         id="path8197" />
    </g>
    <g
       id="p-4"
       style="fill:none;stroke-linecap:round;stroke-linejoin:round"
       transform="matrix(0.54296875,0,0,0.51119768,250.85729,144.10201)">
      <path
         d="m 134.884,107.2 h 6.109 c 0.1,0 0,-0.1 0,0 v 2.9 c 0,0.055 0.045,0.1 0.1,0.1 h 6 c 0.056,0 0.1,-0.045 0.1,-0.1 v -2.9 c 0,-0.1 -0.1,0 0,0 h 5.8 c 0.1,0 0,-0.1 0,0 v 2.9 c 0,0.055 0.045,0.1 0.1,0.1 h 6 c 0.056,0 0.1,-0.045 0.1,-0.1 v -2.9 c 0,-0.1 -0.1,0 0,0 h 5.8 c 0.1,0 0,-0.1 0,0 v 2.9 c 0,0.055 0.045,0.1 0.1,0.1 h 6 c 0.056,0 0.1,-0.045 0.1,-0.1 v -2.9 c 0,-0.1 -0.1,0 0,0 h 5.8 c 0.1,0 0,-0.1 0,0 v 2.9 c 0,0.055 0.045,0.1 0.1,0.1 h 6 c 0.056,0 0.1,-0.045 0.1,-0.1 v -2.9 c 0,-0.1 -0.1,0 0,0 h 6.11 c 0.055,0 0.1,-0.045 0.1,-0.1 v -3.4 c 0,-0.1 -0.1,0 0,0 h 2.753 c 0.055,0 0.1,-0.045 0.1,-0.1 v -6 c 0,-0.055 -0.045,-0.1 -0.1,-0.1 h -2.753 c -0.1,0 0,0.1 0,0 v -5.8 c 0,-0.1 -0.1,0 0,0 h 2.753 c 0.055,0 0.1,-0.045 0.1,-0.1 v -6 c 0,-0.055 -0.045,-0.1 -0.1,-0.1 h -2.753 c -0.1,0 0,0.1 0,0 v -5.8 c 0,-0.1 -0.1,0 0,0 h 2.753 c 0.055,0 0.1,-0.045 0.1,-0.1 v -6 c 0,-0.055 -0.045,-0.1 -0.1,-0.1 h -2.753 c -0.1,0 0,0.1 0,0 v -5.8 c 0,-0.1 -0.1,0 0,0 h 2.753 c 0.055,0 0.1,-0.045 0.1,-0.1 v -6 c 0,-0.055 -0.045,-0.1 -0.1,-0.1 h -2.753 c -0.1,0 0,0.1 0,0 v -5.8 c 0,-0.1 -0.1,0 0,0 h 2.753 c 0.055,0 0.1,-0.045 0.1,-0.1 v -6 c 0,-0.055 -0.045,-0.1 -0.1,-0.1 h -2.753 c -0.1,0 0,0.1 0,0 v -5.8 c 0,-0.1 -0.1,0 0,0 h 2.753 c 0.055,0 0.1,-0.045 0.1,-0.1 v -6 c 0,-0.055 -0.045,-0.1 -0.1,-0.1 h -2.753 c -0.1,0 0,0.1 0,0 v -5.8 c 0,-0.1 -0.1,0 0,0 h 2.753 c 0.055,0 0.1,-0.045 0.1,-0.1 v -6 c 0,-0.055 -0.045,-0.1 -0.1,-0.1 h -2.753 c -0.1,0 0,0.1 0,0 v -5.8 c 0,-0.1 -0.1,0 0,0 h 2.753 c 0.055,0 0.1,-0.045 0.1,-0.1 v -6 c 0,-0.055 -0.045,-0.1 -0.1,-0.1 h -2.753 c -0.1,0 0,0.1 0,0 v -3.4 c 0,-0.055 -0.045,-0.1 -0.1,-0.1 h -54.419 c -0.055,0 -0.1,0.045 -0.1,0.1 0,-0.055 0.045,-0.1 0.1,-0.1 h -2.18 c -0.055,0 -0.1,0.045 -0.1,0.1 v 3.5 c 0,0.055 0.045,0.1 0.1,0.1 h 2.753 c 0.1,0 0,-0.1 0,0 v 5.8 c 0,0.1 0.1,0 0,0 h -2.753 c -0.055,0 -0.1,0.045 -0.1,0.1 v 6 c 0,0.055 0.045,0.1 0.1,0.1 h 2.753 c 0.1,0 0,-0.1 0,0 v 5.8 c 0,0.1 0.1,0 0,0 h -2.753 c -0.055,0 -0.1,0.045 -0.1,0.1 v 6 c 0,0.055 0.045,0.1 0.1,0.1 h 2.753 c 0.1,0 0,-0.1 0,0 v 5.8 c 0,0.1 0.1,0 0,0 h -2.753 c -0.055,0 -0.1,0.045 -0.1,0.1 v 6 c 0,0.055 0.045,0.1 0.1,0.1 h 2.753 c 0.1,0 0,-0.1 0,0 v 5.8 c 0,0.1 0.1,0 0,0 h -2.753 c -0.055,0 -0.1,0.045 -0.1,0.1 v 6 c 0,0.055 0.045,0.1 0.1,0.1 h 2.753 c 0.1,0 0,-0.1 0,0 v 5.8 c 0,0.1 0.1,0 0,0 h -2.753 c -0.055,0 -0.1,0.045 -0.1,0.1 v 6 c 0,0.055 0.045,0.1 0.1,0.1 h 2.753 c 0.1,0 0,-0.1 0,0 v 5.8 c 0,0.1 0.1,0 0,0 h -2.753 c -0.055,0 -0.1,0.045 -0.1,0.1 v 6 c 0,0.055 0.045,0.1 0.1,0.1 h 2.753 c 0.1,0 0,-0.1 0,0 v 5.8 c 0,0.1 0.1,0 0,0 h -2.753 c -0.055,0 -0.1,0.045 -0.1,0.1 v 6 c 0,0.055 0.045,0.1 0.1,0.1 h 2.753 c 0.1,0 0,-0.1 0,0 v 5.8 c 0,0.1 0.1,0 0,0 h -2.753 c -0.055,0 -0.1,0.045 -0.1,0.1 v 3.5 c 0,0.055 0.045,0.1 0.1,0.1 h 2.18 c -0.055,0 -0.1,-0.045 -0.1,-0.1 0,0.055 0.045,0.1 0.1,0.1 z"
         stroke="#000000"
         stroke-width="0.2"
         id="path8200" />
    </g>
    <g
       id="p-5"
       style="fill:none;stroke-linecap:round;stroke-linejoin:round"
       transform="matrix(0.54296875,0,0,0.51119768,250.85729,144.10201)">
      <path
         d="m 196.036,107.2 h 6.109 c 0.1,0 0,-0.1 0,0 v 2.9 c 0,0.055 0.045,0.1 0.1,0.1 h 6 c 0.056,0 0.1,-0.045 0.1,-0.1 v -2.9 c 0,-0.1 -0.1,0 0,0 h 5.8 c 0.1,0 0,-0.1 0,0 v 2.9 c 0,0.055 0.045,0.1 0.1,0.1 h 6 c 0.056,0 0.1,-0.045 0.1,-0.1 v -2.9 c 0,-0.1 -0.1,0 0,0 h 5.8 c 0.1,0 0,-0.1 0,0 v 2.9 c 0,0.055 0.045,0.1 0.1,0.1 h 6 c 0.056,0 0.1,-0.045 0.1,-0.1 v -2.9 c 0,-0.1 -0.1,0 0,0 h 5.8 c 0.1,0 0,-0.1 0,0 v 2.9 c 0,0.055 0.045,0.1 0.1,0.1 h 6 c 0.056,0 0.1,-0.045 0.1,-0.1 v -2.9 c 0,-0.1 -0.1,0 0,0 h 6.11 c 0.055,0 0.1,-0.045 0.1,-0.1 v -3.4 c 0,-0.1 -0.1,0 0,0 h 2.753 c 0.055,0 0.1,-0.045 0.1,-0.1 v -6 c 0,-0.055 -0.045,-0.1 -0.1,-0.1 h -2.753 c -0.1,0 0,0.1 0,0 v -5.8 c 0,-0.1 -0.1,0 0,0 h 2.753 c 0.055,0 0.1,-0.045 0.1,-0.1 v -6 c 0,-0.055 -0.045,-0.1 -0.1,-0.1 h -2.753 c -0.1,0 0,0.1 0,0 v -5.8 c 0,-0.1 -0.1,0 0,0 h 2.753 c 0.055,0 0.1,-0.045 0.1,-0.1 v -6 c 0,-0.055 -0.045,-0.1 -0.1,-0.1 h -2.753 c -0.1,0 0,0.1 0,0 v -5.8 c 0,-0.1 -0.1,0 0,0 h 2.753 c 0.055,0 0.1,-0.045 0.1,-0.1 v -6 c 0,-0.055 -0.045,-0.1 -0.1,-0.1 h -2.753 c -0.1,0 0,0.1 0,0 v -5.8 c 0,-0.1 -0.1,0 0,0 h 2.753 c 0.055,0 0.1,-0.045 0.1,-0.1 v -6 c 0,-0.055 -0.045,-0.1 -0.1,-0.1 h -2.753 c -0.1,0 0,0.1 0,0 v -5.8 c 0,-0.1 -0.1,0 0,0 h 2.753 c 0.055,0 0.1,-0.045 0.1,-0.1 v -6 c 0,-0.055 -0.045,-0.1 -0.1,-0.1 h -2.753 c -0.1,0 0,0.1 0,0 v -5.8 c 0,-0.1 -0.1,0 0,0 h 2.753 c 0.055,0 0.1,-0.045 0.1,-0.1 v -6 c 0,-0.055 -0.045,-0.1 -0.1,-0.1 h -2.753 c -0.1,0 0,0.1 0,0 v -5.8 c 0,-0.1 -0.1,0 0,0 h 2.753 c 0.055,0 0.1,-0.045 0.1,-0.1 v -6 c 0,-0.055 -0.045,-0.1 -0.1,-0.1 h -2.753 c -0.1,0 0,0.1 0,0 v -3.4 c 0,-0.055 -0.045,-0.1 -0.1,-0.1 h -54.419 c -0.055,0 -0.1,0.045 -0.1,0.1 0,-0.055 0.045,-0.1 0.1,-0.1 h -2.18 c -0.055,0 -0.1,0.045 -0.1,0.1 v 3.5 c 0,0.055 0.045,0.1 0.1,0.1 h 2.753 c 0.1,0 0,-0.1 0,0 v 5.8 c 0,0.1 0.1,0 0,0 h -2.753 c -0.055,0 -0.1,0.045 -0.1,0.1 v 6 c 0,0.055 0.045,0.1 0.1,0.1 h 2.753 c 0.1,0 0,-0.1 0,0 v 5.8 c 0,0.1 0.1,0 0,0 h -2.753 c -0.055,0 -0.1,0.045 -0.1,0.1 v 6 c 0,0.055 0.045,0.1 0.1,0.1 h 2.753 c 0.1,0 0,-0.1 0,0 v 5.8 c 0,0.1 0.1,0 0,0 h -2.753 c -0.055,0 -0.1,0.045 -0.1,0.1 v 6 c 0,0.055 0.045,0.1 0.1,0.1 h 2.753 c 0.1,0 0,-0.1 0,0 v 5.8 c 0,0.1 0.1,0 0,0 h -2.753 c -0.055,0 -0.1,0.045 -0.1,0.1 v 6 c 0,0.055 0.045,0.1 0.1,0.1 h 2.753 c 0.1,0 0,-0.1 0,0 v 5.8 c 0,0.1 0.1,0 0,0 h -2.753 c -0.055,0 -0.1,0.045 -0.1,0.1 v 6 c 0,0.055 0.045,0.1 0.1,0.1 h 2.753 c 0.1,0 0,-0.1 0,0 v 5.8 c 0,0.1 0.1,0 0,0 h -2.753 c -0.055,0 -0.1,0.045 -0.1,0.1 v 6 c 0,0.055 0.045,0.1 0.1,0.1 h 2.753 c 0.1,0 0,-0.1 0,0 v 5.8 c 0,0.1 0.1,0 0,0 h -2.753 c -0.055,0 -0.1,0.045 -0.1,0.1 v 6 c 0,0.055 0.045,0.1 0.1,0.1 h 2.753 c 0.1,0 0,-0.1 0,0 v 5.8 c 0,0.1 0.1,0 0,0 h -2.753 c -0.055,0 -0.1,0.045 -0.1,0.1 v 3.5 c 0,0.055 0.045,0.1 0.1,0.1 h 2.18 c -0.055,0 -0.1,-0.045 -0.1,-0.1 0,0.055 0.045,0.1 0.1,0.1 z"
         stroke="#000000"
         stroke-width="0.2"
         id="path8203" />
    </g>
    <g
       id="p-6"
       style="fill:none;stroke-linecap:round;stroke-linejoin:round"
       transform="matrix(0.54296875,0,0,0.51119768,250.85729,144.10201)">
      <path
         d="m 257.188,107.2 h 6.11 c 0.1,0 0,-0.1 0,0 v 2.9 c 0,0.055 0.044,0.1 0.1,0.1 h 6 c 0.055,0 0.1,-0.045 0.1,-0.1 v -2.9 c 0,-0.1 -0.1,0 0,0 h 5.8 c 0.1,0 0,-0.1 0,0 v 2.9 c 0,0.055 0.044,0.1 0.1,0.1 h 6 c 0.055,0 0.1,-0.045 0.1,-0.1 v -2.9 c 0,-0.1 -0.1,0 0,0 h 5.8 c 0.1,0 0,-0.1 0,0 v 2.9 c 0,0.055 0.044,0.1 0.1,0.1 h 6 c 0.055,0 0.1,-0.045 0.1,-0.1 v -2.9 c 0,-0.1 -0.1,0 0,0 h 5.8 c 0.1,0 0,-0.1 0,0 v 2.9 c 0,0.055 0.044,0.1 0.1,0.1 h 6 c 0.055,0 0.1,-0.045 0.1,-0.1 v -2.9 c 0,-0.1 -0.1,0 0,0 h 6.109 c 0.055,0 0.1,-0.045 0.1,-0.1 v -3.4 c 0,-0.1 -0.1,0 0,0 h 2.753 c 0.056,0 0.1,-0.045 0.1,-0.1 v -6 c 0,-0.055 -0.044,-0.1 -0.1,-0.1 h -2.753 c -0.1,0 0,0.1 0,0 v -5.8 c 0,-0.1 -0.1,0 0,0 h 2.753 c 0.056,0 0.1,-0.045 0.1,-0.1 v -6 c 0,-0.055 -0.044,-0.1 -0.1,-0.1 h -2.753 c -0.1,0 0,0.1 0,0 v -5.8 c 0,-0.1 -0.1,0 0,0 h 2.753 c 0.056,0 0.1,-0.045 0.1,-0.1 v -6 c 0,-0.055 -0.044,-0.1 -0.1,-0.1 h -2.753 c -0.1,0 0,0.1 0,0 v -5.8 c 0,-0.1 -0.1,0 0,0 h 2.753 c 0.056,0 0.1,-0.045 0.1,-0.1 v -6 c 0,-0.055 -0.044,-0.1 -0.1,-0.1 h -2.753 c -0.1,0 0,0.1 0,0 v -5.8 c 0,-0.1 -0.1,0 0,0 h 2.753 c 0.056,0 0.1,-0.045 0.1,-0.1 v -6 c 0,-0.055 -0.044,-0.1 -0.1,-0.1 h -2.753 c -0.1,0 0,0.1 0,0 v -5.8 c 0,-0.1 -0.1,0 0,0 h 2.753 c 0.056,0 0.1,-0.045 0.1,-0.1 v -6 c 0,-0.055 -0.044,-0.1 -0.1,-0.1 h -2.753 c -0.1,0 0,0.1 0,0 v -5.8 c 0,-0.1 -0.1,0 0,0 h 2.753 c 0.056,0 0.1,-0.045 0.1,-0.1 v -6 c 0,-0.055 -0.044,-0.1 -0.1,-0.1 h -2.753 c -0.1,0 0,0.1 0,0 v -5.8 c 0,-0.1 -0.1,0 0,0 h 2.753 c 0.056,0 0.1,-0.045 0.1,-0.1 v -6 c 0,-0.055 -0.044,-0.1 -0.1,-0.1 h -2.753 c -0.1,0 0,0.1 0,0 v -3.4 c 0,-0.055 -0.045,-0.1 -0.1,-0.1 h -54.419 c -0.055,0 -0.1,0.045 -0.1,0.1 0,-0.055 0.045,-0.1 0.1,-0.1 h -2.18 c -0.055,0 -0.1,0.045 -0.1,0.1 v 3.5 c 0,0.055 0.045,0.1 0.1,0.1 h 2.753 c 0.1,0 0,-0.1 0,0 v 5.8 c 0,0.1 0.1,0 0,0 h -2.753 c -0.055,0 -0.1,0.045 -0.1,0.1 v 6 c 0,0.055 0.045,0.1 0.1,0.1 h 2.753 c 0.1,0 0,-0.1 0,0 v 5.8 c 0,0.1 0.1,0 0,0 h -2.753 c -0.055,0 -0.1,0.045 -0.1,0.1 v 6 c 0,0.055 0.045,0.1 0.1,0.1 h 2.753 c 0.1,0 0,-0.1 0,0 v 5.8 c 0,0.1 0.1,0 0,0 h -2.753 c -0.055,0 -0.1,0.045 -0.1,0.1 v 6 c 0,0.055 0.045,0.1 0.1,0.1 h 2.753 c 0.1,0 0,-0.1 0,0 v 5.8 c 0,0.1 0.1,0 0,0 h -2.753 c -0.055,0 -0.1,0.045 -0.1,0.1 v 6 c 0,0.055 0.045,0.1 0.1,0.1 h 2.753 c 0.1,0 0,-0.1 0,0 v 5.8 c 0,0.1 0.1,0 0,0 h -2.753 c -0.055,0 -0.1,0.045 -0.1,0.1 v 6 c 0,0.055 0.045,0.1 0.1,0.1 h 2.753 c 0.1,0 0,-0.1 0,0 v 5.8 c 0,0.1 0.1,0 0,0 h -2.753 c -0.055,0 -0.1,0.045 -0.1,0.1 v 6 c 0,0.055 0.045,0.1 0.1,0.1 h 2.753 c 0.1,0 0,-0.1 0,0 v 5.8 c 0,0.1 0.1,0 0,0 h -2.753 c -0.055,0 -0.1,0.045 -0.1,0.1 v 6 c 0,0.055 0.045,0.1 0.1,0.1 h 2.753 c 0.1,0 0,-0.1 0,0 v 5.8 c 0,0.1 0.1,0 0,0 h -2.753 c -0.055,0 -0.1,0.045 -0.1,0.1 v 3.5 c 0,0.055 0.045,0.1 0.1,0.1 h 2.18 c -0.055,0 -0.1,-0.045 -0.1,-0.1 0,0.055 0.045,0.1 0.1,0.1 z"
         stroke="#000000"
         stroke-width="0.2"
         id="path8206" />
    </g>
    <path
       style="fill:none;fill-opacity:1;stroke:#000000;stroke-width:0.5588;stroke-dasharray:none;stroke-opacity:1"
       d="M 276.76507,213.53478 H 288.925 v 23.78044 h -12.15993 z"
       id="path1-8" />
  </g>
  <inkscape:templateinfo>
    <inkscape:name>Glowforge Template</inkscape:name>
    <inkscape:author>k</inkscape:author>
    <inkscape:date>2023-10-16</inkscape:date>
    <inkscape:keywords>gf</inkscape:keywords>
  </inkscape:templateinfo>
</svg>
